<svg xmlns="http://www.w3.org/2000/svg" width="51.072" height="51.072" viewBox="0 0 51.072 51.072">
  <g id="group-9_1_" data-name="group-9 (1)" transform="translate(-0.464 -0.464)">
    <path id="Path_1" data-name="Path 1" d="M32.837,3.483h4.43a3,3,0,0,1,2.6,1.5L42.081,8.82a3.006,3.006,0,0,0,1.1,1.1l3.838,2.215a3,3,0,0,1,1.5,2.6v4.43a2.989,2.989,0,0,0,.4,1.5L51.134,24.5a3,3,0,0,1,0,3l-2.215,3.837a2.994,2.994,0,0,0-.4,1.5v4.431a3,3,0,0,1-1.5,2.6l-3.838,2.215a3.006,3.006,0,0,0-1.1,1.1l-2.215,3.837a3,3,0,0,1-2.6,1.5h-4.43a2.989,2.989,0,0,0-1.5.4L27.5,51.134a3,3,0,0,1-3,0l-3.837-2.215a2.994,2.994,0,0,0-1.5-.4H14.732a3,3,0,0,1-2.6-1.5L9.919,43.179a3.011,3.011,0,0,0-1.1-1.1L4.983,39.866a3,3,0,0,1-1.5-2.6v-4.43a2.989,2.989,0,0,0-.4-1.5L.866,27.5a3,3,0,0,1,0-3l2.215-3.837a2.994,2.994,0,0,0,.4-1.5V14.732a3,3,0,0,1,1.5-2.6L8.82,9.919a3,3,0,0,0,1.1-1.1l2.215-3.837a3,3,0,0,1,2.6-1.5h4.43a2.989,2.989,0,0,0,1.5-.4L24.5.866a3,3,0,0,1,3,0l3.837,2.215a2.994,2.994,0,0,0,1.5.4Z" fill="#4c4e51" fillRule="evenodd"/>
    <path id="Path_2" data-name="Path 2" d="M31.641,6.947h4.2a2,2,0,0,1,1.732,1l2.1,3.641a2.01,2.01,0,0,0,.732.733l3.642,2.1a2,2,0,0,1,1,1.732v4.2a2,2,0,0,0,.267,1L47.423,25a2,2,0,0,1,0,2l-2.1,3.641a2,2,0,0,0-.267,1v4.2a2,2,0,0,1-1,1.732l-3.643,2.1a2.01,2.01,0,0,0-.732.733l-2.1,3.64a2,2,0,0,1-1.732,1h-4.2a2.006,2.006,0,0,0-1,.268L27,47.423a2,2,0,0,1-2,0l-3.641-2.1a2,2,0,0,0-1-.267h-4.2a2,2,0,0,1-1.732-1l-2.1-3.641a2.013,2.013,0,0,0-.733-.733l-3.64-2.1a2,2,0,0,1-1-1.732v-4.2a2,2,0,0,0-.269-1L4.577,27a2,2,0,0,1,0-2l2.1-3.641a2,2,0,0,0,.268-1v-4.2a2,2,0,0,1,1-1.732l3.641-2.1a2.013,2.013,0,0,0,.733-.733l2.1-3.64a2,2,0,0,1,1.732-1h4.2a2,2,0,0,0,1-.269L25,4.577a2,2,0,0,1,2,0l3.642,2.1a2,2,0,0,0,1,.268Z" fill="none" stroke="#fff" strokeWidth="2" fillRule="evenodd" opacity="0.2"/>
  </g>
</svg>