<svg xmlns="http://www.w3.org/2000/svg" xmlns:xlink="http://www.w3.org/1999/xlink" width="49.072" height="49.072" viewBox="0 0 49.072 49.072">
  <defs>
    <linearGradient id="linear-gradient" x1="0.296" y1="0.288" x2="0.715" y2="0.721" gradientUnits="objectBoundingBox">
      <stop offset="0" stop-color="#afb0b4"/>
      <stop offset="1" stop-color="#c7c9d4"/>
    </linearGradient>
  </defs>
  <g id="Home-page" transform="translate(-0.464 -0.464)">
    <g id="Home-Page---Dark-mode" transform="translate(-1060 -2829)">
      <g id="Best-ranking" transform="translate(-1 2399)">
        <g id="Stacked-Group" transform="translate(313 124)">
          <g id="Stacked-Group-2" transform="translate(0 191)">
            <g id="Oval-Copy-2" transform="translate(0 104)">
              <g id="Group-9" transform="translate(748 11)">
                <path id="Clip-2" d="M18.395-3.349H14.232a3,3,0,0,1-2.6-1.5L9.553-8.454a3,3,0,0,0-1.1-1.1L4.849-11.634a3,3,0,0,1-1.5-2.6v-4.163a3,3,0,0,0-.4-1.5L.866-23.5a3,3,0,0,1,0-3l2.081-3.605a3,3,0,0,0,.4-1.5v-4.163a3,3,0,0,1,1.5-2.6l3.605-2.081a3,3,0,0,0,1.1-1.1l2.081-3.605a3,3,0,0,1,2.6-1.5h4.163a3,3,0,0,0,1.5-.4L23.5-49.134a3,3,0,0,1,3,0l3.605,2.081a3,3,0,0,0,1.5.4h4.163a3,3,0,0,1,2.6,1.5l2.081,3.605a3,3,0,0,0,1.1,1.1l3.605,2.081a3,3,0,0,1,1.5,2.6v4.163a3,3,0,0,0,.4,1.5L49.134-26.5a3,3,0,0,1,0,3l-2.081,3.605a3,3,0,0,0-.4,1.5v4.163a3,3,0,0,1-1.5,2.6L41.546-9.553a3,3,0,0,0-1.1,1.1L38.366-4.849a3,3,0,0,1-2.6,1.5H31.605a3,3,0,0,0-1.5.4L26.5-.866a3,3,0,0,1-3,0L19.895-2.947A3,3,0,0,0,18.395-3.349Z" transform="translate(50) rotate(180)" fillRule="evenodd" fill="url(#linear-gradient)"/>
                <path id="Clip-2-Copy" d="M19.591-6.813H15.655a2,2,0,0,1-1.732-1l-1.968-3.409a2,2,0,0,0-.732-.732L7.814-13.923a2,2,0,0,1-1-1.732v-3.936a2,2,0,0,0-.268-1L4.577-24a2,2,0,0,1,0-2l1.968-3.409a2,2,0,0,0,.268-1v-3.936a2,2,0,0,1,1-1.732l3.409-1.968a2,2,0,0,0,.732-.732l1.968-3.409a2,2,0,0,1,1.732-1h3.936a2,2,0,0,0,1-.268L24-45.423a2,2,0,0,1,2,0l3.409,1.968a2,2,0,0,0,1,.268h3.936a2,2,0,0,1,1.732,1l1.968,3.409a2,2,0,0,0,.732.732l3.409,1.968a2,2,0,0,1,1,1.732v3.936a2,2,0,0,0,.268,1L45.423-26a2,2,0,0,1,0,2l-1.968,3.409a2,2,0,0,0-.268,1v3.936a2,2,0,0,1-1,1.732l-3.409,1.968a2,2,0,0,0-.732.732L36.077-7.813a2,2,0,0,1-1.732,1H30.409a2,2,0,0,0-1,.268L26-4.577a2,2,0,0,1-2,0L20.591-6.546A2,2,0,0,0,19.591-6.813Z" transform="translate(50) rotate(180)" fill="none" stroke="#fff" strokeWidth="2" fillRule="evenodd" opacity="0.3"/>
              </g>
            </g>
          </g>
        </g>
      </g>
    </g>
  </g>
</svg>