<svg xmlns="http://www.w3.org/2000/svg" width="215" height="220" viewBox="0 0 215 220">
    <g fill="none" fillRule="evenodd">
        <path fill="#2E0677" d="M184.83 107.376s-.996 13.475 15.427 13.317l-.174-1.728s-11.109-3.117-10.911-12.182l-4.341.593z"/>
        <path fill="#2E0677" d="M193.924 103.098s-.944 2.483.629 6.237c.705 1.686 1.738.842 2.696 1.913 1.64 1.837 2.424 3.648 2.424 3.648l.487 4.829 3.68-.583s-1.924-2.458-2.92-4.119c-1.975-3.288-3.662-7.415-3.02-10.894l-3.976-1.031z"/>
        <path fill="#5C0DEE" d="M172.721 125.86s7.126.634 10.875 2.058c3.75 1.424 17.718 1.37 17.754-10.194.036-11.564-10.245-15.183-14.901-15.165-.893 1.208-1.432 2.64-1.56 4.135l-.058.682s10.28 1.219 13.723 8.527c2.258 4.791 1.616 8.412-8.767 8.336-6.445-.046-12.297-6.215-12.297-6.215l-4.769 7.836z"/>
        <path fill="#5C0DEE" d="M200.232 120.45s9.974-.517 6.981-11.918c-2.992-11.4-10.496-9.995-10.496-9.995-1.042 1.257-1.915 2.645-2.595 4.13l-.198.43s9.63 3.184 10.313 9.947c.552 5.483-2.374 5.165-3.551 6.26-.921.858-.454 1.145-.454 1.145"/>
        <path fill="#5C0DEE" d="M214.721 84.697s-6.048 1.882-3.59 11.621c2.457 9.74 3.72 12.293 2.085 17.35-1.637 5.057-10.514 6.198-10.514 6.198l1.074-1.36s8.797-1.891 6.447-10.569c-2.35-8.677-6.32-14.108-5.612-19.072.707-4.964 3.473-8.795 5.092-10.03l5.018 5.862zM148.762 24.606s-.706-13.159 12.2-19.11l5.768 5.923s-10.171 2.145-10.857 16.34l-7.111-3.153z"/>
        <path fill="#47484B" d="M55.548 0s10.94 1.883 18.341 13.174l-3.914 3.453s-3.691-8.426-15.76-11.6L55.548 0zM21.787 133.581s10.923-1.98 21.751 6.089l-2.49 4.585s-6.361-6.65-18.787-5.494l-.474-5.18zM155.533 47.441s3.669-10.469 16.037-15.894l2.76 4.428s-8.926 2.244-14.056 13.612l-4.741-2.146z"/>
        <path fill="#007A82" d="M120.511 122.771L121.983 153.565 133.334 148.914 135.408 123.13z"/>
        <path fill="#00ADBB" d="M186.6 137.26s-63.85 25.193-64.617 17.167c-.11-1.147 1.068-2.97 3.904-5.642 3.85-3.63 5.606-6.666 5.644-9.112v-.227l-.105-84.732c16.87-4.427 55.572-14.566 57.664-20.51l-2.49 103.057z"/>
        <path fill="#B2EBEE" d="M116.946 95.818l20.79-19.794c1.117-1.063 1.16-2.829.095-3.944-1.063-1.115-2.832-1.158-3.947-.096l-19.156 18.24.007 6.337c.073.007.145.024.218.026.714.017 1.436-.238 1.993-.77"/>
        <path fill="#4CC7CF" d="M131.426 54.714l-.022-18.32-.004-3.58c-2.253-13.92-40.39-13.312-67.713-4.966-32.332 9.875-41.971 17.34-41.971 17.34l20.473 111.378c41.345-25.337 88.948-31.375 89.342-17.12l-.105-84.732z"/>
        <path fill="#FFF" d="M96.755 102.749L84.289 86.604c-.974-1.262-2.787-1.494-4.05-.522-1.263.974-1.497 2.786-.523 4.047l14.424 18.68c.5.647 1.25 1.052 2.067 1.114.05.004.1.007.15.008.763.018 1.506-.266 2.061-.796l33.037-31.16-.008-6.866-34.692 31.64z"/>
        <path fill="#5C0DEE" d="M13.684 25.525s8.136 1.026 9.853 6.646c1.717 5.619.12 8.876 12.283 10.797l4.609-6.862s-7.86 2.612-10.253-7.49c-2.393-10.103-12.787-8.379-12.787-8.379l-3.705 5.288z"/>
        <path fill="#B7EE12" d="M189.887 70.907s-.217-8.66 5.39-11.346c5.606-2.685 9.267-1.535 9.347-14.543l-7.91-3.726s3.98 7.796-6.21 11.899c-10.19 4.103-6.736 14.686-6.736 14.686l6.119 3.03z"/>
        <path stroke="#FAFCFF" strokeLinecap="round" strokeLinejoin="round" strokeWidth="3" d="M19.103 40.816L54.215 218.448"/>
        <g>
            <path fill="#80A60C" d="M21.194 12.418S7.708 11.422 7.867 27.832l1.73-.174s3.118-11.1 12.19-10.902l-.593-4.338z" transform="translate(0 72.282)"/>
            <path fill="#80A60C" d="M25.476 21.504s-2.485-.943-6.243.628c-1.686.706-.842 1.738-1.914 2.694-1.839 1.64-3.651 2.422-3.651 2.422l-4.833.487.584 3.677s2.46-1.922 4.121-2.918c3.292-1.972 7.421-3.658 10.904-3.016l1.032-3.974z" transform="translate(0 72.282)"/>
            <path fill="#B7EE12" d="M2.695.318S2.06 7.438.635 11.185c-1.425 3.747-1.37 17.703 10.203 17.74 11.573.036 15.195-10.238 15.177-14.89-1.21-.892-2.642-1.431-4.14-1.559l-.68-.058s-1.22 10.272-8.535 13.713c-4.795 2.256-8.419 1.614-8.343-8.76.047-6.44 6.221-12.287 6.221-12.287L2.695.318z" transform="translate(0 72.282)"/>
            <path fill="#B7EE12" d="M8.11 27.808s.517 9.966 11.927 6.975c11.41-2.99 10.003-10.488 10.003-10.488-1.257-1.041-2.647-1.913-4.132-2.593l-.432-.198S22.29 31.127 15.52 31.81c-5.487.552-5.169-2.372-6.265-3.548-.858-.92-1.146-.453-1.146-.453" transform="translate(0 72.282)"/>
            <path fill="#B7EE12" d="M43.891 42.285s-1.884-6.043-11.63-3.588c-9.747 2.456-12.303 3.718-17.364 2.083-5.062-1.635-6.203-10.504-6.203-10.504l1.361 1.072s1.893 8.79 10.577 6.442c8.684-2.349 14.12-6.314 19.088-5.608 4.968.707 8.802 3.471 10.038 5.09l-5.867 5.013z" transform="translate(0 72.282)"/>
        </g>
    </g>
</svg>
